<?xml version="1.0" standalone="no"?><!DOCTYPE svg PUBLIC "-//W3C//DTD SVG 1.1//EN" "http://www.w3.org/Graphics/SVG/1.1/DTD/svg11.dtd"><svg t="1639213788227" class="icon" viewBox="0 0 1024 1024" version="1.1" xmlns="http://www.w3.org/2000/svg" p-id="6801" xmlns:xlink="http://www.w3.org/1999/xlink" width="200" height="200"><defs><style type="text/css"></style></defs><path d="M256 512a170.666667 170.666667 0 1 1 170.666667-170.666667 170.666667 170.666667 0 0 1-170.666667 170.666667z m0-256a85.333333 85.333333 0 1 0 85.333333 85.333333 85.333333 85.333333 0 0 0-85.333333-85.333333z" fill="#309FFB" p-id="6802"></path><path d="M725.333333 853.333333a213.333333 213.333333 0 0 1-213.333333-213.333333V384a213.333333 213.333333 0 0 1 426.666667 0 42.666667 42.666667 0 0 1-85.333334 0 128 128 0 0 0-256 0v256a128 128 0 0 0 256 0 42.666667 42.666667 0 0 1 85.333334 0 213.333333 213.333333 0 0 1-213.333334 213.333333z" fill="#6A8A9A" p-id="6803"></path></svg>