<?xml version="1.0" standalone="no"?><!DOCTYPE svg PUBLIC "-//W3C//DTD SVG 1.1//EN" "http://www.w3.org/Graphics/SVG/1.1/DTD/svg11.dtd"><svg t="1639213502445" class="icon" viewBox="0 0 1024 1024" version="1.1" xmlns="http://www.w3.org/2000/svg" p-id="5966" xmlns:xlink="http://www.w3.org/1999/xlink" width="200" height="200"><defs><style type="text/css"></style></defs><path d="M799.573333 494.933333a42.666667 42.666667 0 0 1-21.333333-5.546666A146.773333 146.773333 0 0 0 704 469.333333h-91.306667a42.666667 42.666667 0 0 1-28.16-10.666666 213.333333 213.333333 0 0 1 93.013334-367.786667 42.666667 42.666667 0 0 1 51.2 49.92A160.426667 160.426667 0 0 0 725.333333 170.666667a128 128 0 0 0 128 128 160.426667 160.426667 0 0 0 29.866667-3.413334 42.666667 42.666667 0 0 1 39.253333 11.946667 42.666667 42.666667 0 0 1 10.666667 39.68 213.333333 213.333333 0 0 1-115.2 143.786667 38.826667 38.826667 0 0 1-18.346667 4.266666z m-170.666666-110.933333h75.093333a232.533333 232.533333 0 0 1 94.293333 20.053333 134.4 134.4 0 0 0 24.32-20.053333 213.333333 213.333333 0 0 1-180.48-180.906667A128 128 0 0 0 630.186667 384z" fill="#309FFB" p-id="5967"></path><path d="M704 853.333333H384a298.666667 298.666667 0 1 1 244.906667-469.333333h75.093333a234.666667 234.666667 0 0 1 0 469.333333zM384 341.333333a213.333333 213.333333 0 0 0 0 426.666667h320a149.333333 149.333333 0 0 0 0-298.666667h-98.56a42.666667 42.666667 0 0 1-37.12-21.333333A213.333333 213.333333 0 0 0 384 341.333333z" fill="#BBDEFB" p-id="5968"></path></svg>