<?xml version="1.0" standalone="no"?><!DOCTYPE svg PUBLIC "-//W3C//DTD SVG 1.1//EN" "http://www.w3.org/Graphics/SVG/1.1/DTD/svg11.dtd"><svg t="1639213558237" class="icon" viewBox="0 0 1024 1024" version="1.1" xmlns="http://www.w3.org/2000/svg" p-id="6243" xmlns:xlink="http://www.w3.org/1999/xlink" width="200" height="200"><defs><style type="text/css"></style></defs><path d="M819.2 507.733333a42.666667 42.666667 0 0 1-25.173333-8.106666 120.32 120.32 0 0 0-15.36-10.24A149.76 149.76 0 0 0 704 469.333333h-98.56a42.666667 42.666667 0 0 1-37.12-21.333333 213.333333 213.333333 0 0 0-112.64-94.293333 42.666667 42.666667 0 0 1-28.16-42.666667 184.746667 184.746667 0 0 1 183.893333-167.68A187.733333 187.733333 0 0 1 757.333333 213.333333h32a144.64 144.64 0 0 1 74.24 20.053334 148.906667 148.906667 0 0 1-32.426666 272.64 38.4 38.4 0 0 1-11.946667 1.706666zM628.906667 384h75.093333a233.813333 233.813333 0 0 1 116.906667 31.146667h2.56a64 64 0 0 0-2.56-109.653334A61.44 61.44 0 0 0 789.333333 298.666667h-54.613333a42.666667 42.666667 0 0 1-36.693333-20.906667 99.413333 99.413333 0 0 0-178.346667 10.666667A302.08 302.08 0 0 1 628.906667 384z" fill="#309FFB" p-id="6244"></path><path d="M704 853.333333H384A298.666667 298.666667 0 0 1 384 256a293.973333 293.973333 0 0 1 100.693333 17.493333A298.666667 298.666667 0 0 1 628.906667 384h75.093333a233.813333 233.813333 0 0 1 116.906667 31.146667c7.68 4.693333 15.786667 9.813333 23.466666 15.36A234.666667 234.666667 0 0 1 704 853.333333zM384 341.333333a213.333333 213.333333 0 0 0 0 426.666667h320a149.333333 149.333333 0 0 0 89.6-268.8 128 128 0 0 0-14.933333-9.813333A149.76 149.76 0 0 0 704 469.333333h-98.56a42.666667 42.666667 0 0 1-37.12-21.333333A213.333333 213.333333 0 0 0 384 341.333333z" fill="#BBDEFB" p-id="6245"></path></svg>