<?xml version="1.0" standalone="no"?><!DOCTYPE svg PUBLIC "-//W3C//DTD SVG 1.1//EN" "http://www.w3.org/Graphics/SVG/1.1/DTD/svg11.dtd"><svg t="1639213743687" class="icon" viewBox="0 0 1024 1024" version="1.1" xmlns="http://www.w3.org/2000/svg" p-id="6660" xmlns:xlink="http://www.w3.org/1999/xlink" width="200" height="200"><defs><style type="text/css"></style></defs><path d="M640 896h-6.826667a42.666667 42.666667 0 0 1-35.84-42.666667v-42.666666h-42.666666a42.666667 42.666667 0 0 1-33.706667-16.213334 42.666667 42.666667 0 0 1-7.68-36.693333l42.666667-170.666667A42.666667 42.666667 0 0 1 597.333333 554.666667h42.666667a42.666667 42.666667 0 0 1 34.56 17.92 42.666667 42.666667 0 0 1 5.973333 38.4L656.64 682.666667H682.666667a42.666667 42.666667 0 0 1 34.56 17.92 42.666667 42.666667 0 0 1 5.973333 38.4l-42.666667 128A42.666667 42.666667 0 0 1 640 896z" fill="#FE9517" p-id="6661"></path><path d="M384 768a42.666667 42.666667 0 0 1-42.666667-42.666667v-128a42.666667 42.666667 0 0 1 85.333334 0v128a42.666667 42.666667 0 0 1-42.666667 42.666667z" fill="#309FFB" p-id="6662"></path><path d="M384 853.333333m-42.666667 0a42.666667 42.666667 0 1 0 85.333334 0 42.666667 42.666667 0 1 0-85.333334 0Z" fill="#309FFB" p-id="6663"></path><path d="M771.84 712.96a42.666667 42.666667 0 0 1-40.106667-27.306667 42.666667 42.666667 0 0 1 24.746667-55.04l14.506667-6.4A149.333333 149.333333 0 0 0 704 341.333333h-98.56a42.666667 42.666667 0 0 1-37.12-21.333333 213.333333 213.333333 0 1 0-290.986667 291.413333 42.666667 42.666667 0 1 1-42.666666 73.813334A298.666667 298.666667 0 1 1 628.906667 256h75.093333A234.666667 234.666667 0 0 1 810.666667 700.586667l-22.613334 9.813333a47.786667 47.786667 0 0 1-16.213333 2.56z" fill="#BBDEFB" p-id="6664"></path></svg>