<?xml version="1.0" standalone="no"?><!DOCTYPE svg PUBLIC "-//W3C//DTD SVG 1.1//EN" "http://www.w3.org/Graphics/SVG/1.1/DTD/svg11.dtd"><svg t="1639213640179" class="icon" viewBox="0 0 1024 1024" version="1.1" xmlns="http://www.w3.org/2000/svg" p-id="6382" xmlns:xlink="http://www.w3.org/1999/xlink" width="200" height="200"><defs><style type="text/css"></style></defs><path d="M771.84 712.96a42.666667 42.666667 0 0 1-40.106667-27.733333 42.666667 42.666667 0 0 1 24.746667-54.613334l14.506667-6.4A149.333333 149.333333 0 0 0 704 341.333333h-98.56a42.666667 42.666667 0 0 1-37.12-21.333333 213.333333 213.333333 0 1 0-290.986667 291.413333 42.666667 42.666667 0 1 1-42.666666 73.813334A298.666667 298.666667 0 1 1 628.906667 256h75.093333A234.666667 234.666667 0 0 1 810.666667 700.586667l-22.613334 9.813333a47.786667 47.786667 0 0 1-16.213333 2.56z" fill="#BBDEFB" p-id="6383"></path><path d="M384 682.666667a42.666667 42.666667 0 0 1-42.666667-42.666667v-42.666667a42.666667 42.666667 0 0 1 85.333334 0v42.666667a42.666667 42.666667 0 0 1-42.666667 42.666667zM512 768a42.666667 42.666667 0 0 1-42.666667-42.666667v-42.666666a42.666667 42.666667 0 0 1 85.333334 0v42.666666a42.666667 42.666667 0 0 1-42.666667 42.666667zM512 938.666667a42.666667 42.666667 0 0 1-42.666667-42.666667v-42.666667a42.666667 42.666667 0 0 1 85.333334 0v42.666667a42.666667 42.666667 0 0 1-42.666667 42.666667zM384 853.333333a42.666667 42.666667 0 0 1-42.666667-42.666666v-42.666667a42.666667 42.666667 0 0 1 85.333334 0v42.666667a42.666667 42.666667 0 0 1-42.666667 42.666666zM640 640a42.666667 42.666667 0 0 1-42.666667-42.666667v-42.666666a42.666667 42.666667 0 0 1 85.333334 0v42.666666a42.666667 42.666667 0 0 1-42.666667 42.666667zM640 810.666667a42.666667 42.666667 0 0 1-42.666667-42.666667v-42.666667a42.666667 42.666667 0 0 1 85.333334 0v42.666667a42.666667 42.666667 0 0 1-42.666667 42.666667z" fill="#309FFB" p-id="6384"></path></svg>