<?xml version="1.0" standalone="no"?><!DOCTYPE svg PUBLIC "-//W3C//DTD SVG 1.1//EN" "http://www.w3.org/Graphics/SVG/1.1/DTD/svg11.dtd"><svg t="1639213893269" class="icon" viewBox="0 0 1024 1024" version="1.1" xmlns="http://www.w3.org/2000/svg" p-id="7512" xmlns:xlink="http://www.w3.org/1999/xlink" width="200" height="200"><defs><style type="text/css"></style></defs><path d="M682.666667 597.333333a42.666667 42.666667 0 0 1-42.666667-42.666666 128 128 0 0 0-256 0 42.666667 42.666667 0 0 1-85.333333 0 213.333333 213.333333 0 0 1 426.666666 0 42.666667 42.666667 0 0 1-42.666666 42.666666z" fill="#F8D800" p-id="7513"></path><path d="M512 298.666667a42.666667 42.666667 0 0 1-42.666667-42.666667V170.666667a42.666667 42.666667 0 0 1 85.333334 0v85.333333a42.666667 42.666667 0 0 1-42.666667 42.666667zM300.8 386.133333a42.666667 42.666667 0 0 1-30.293333-12.373333L210.346667 313.173333a42.666667 42.666667 0 0 1 60.16-60.16l60.586666 60.16a42.666667 42.666667 0 0 1 0 60.586667 42.666667 42.666667 0 0 1-30.293333 12.373333zM213.333333 597.333333H128a42.666667 42.666667 0 0 1 0-85.333333h85.333333a42.666667 42.666667 0 0 1 0 85.333333zM896 597.333333h-85.333333a42.666667 42.666667 0 0 1 0-85.333333h85.333333a42.666667 42.666667 0 0 1 0 85.333333zM725.333333 386.133333a42.666667 42.666667 0 0 1-30.293333-12.373333 42.666667 42.666667 0 0 1 0-60.586667l60.586667-60.16a42.666667 42.666667 0 1 1 60.16 60.16l-62.293334 60.586667a42.666667 42.666667 0 0 1-28.16 12.373333z" fill="#FE9517" p-id="7514"></path><path d="M896 768h-256a42.666667 42.666667 0 0 1-30.293333-12.373333L512 657.493333l-97.706667 98.133334A42.666667 42.666667 0 0 1 384 768H128a42.666667 42.666667 0 0 1 0-85.333333h238.506667l115.2-115.626667a42.666667 42.666667 0 0 1 60.586666 0l115.2 115.626667H896a42.666667 42.666667 0 0 1 0 85.333333z" fill="#309FFB" p-id="7515"></path></svg>