<?xml version="1.0" standalone="no"?><!DOCTYPE svg PUBLIC "-//W3C//DTD SVG 1.1//EN" "http://www.w3.org/Graphics/SVG/1.1/DTD/svg11.dtd"><svg t="1639229290209" class="icon" viewBox="0 0 1024 1024" version="1.1" xmlns="http://www.w3.org/2000/svg" p-id="1478" xmlns:xlink="http://www.w3.org/1999/xlink" width="200" height="200"><defs><style type="text/css"></style></defs><path d="M921.472 447.232c0-1.024-0.128-1.92-0.256-2.816l-0.384-2.304c-0.128-0.768-0.512-1.536-0.768-2.304-0.256-0.896-0.64-1.664-1.024-2.56-0.128-0.256-0.128-0.512-0.256-0.768a4.608 4.608 0 0 0-0.896-1.28c-0.512-0.768-0.896-1.536-1.408-2.304-0.512-0.64-1.024-1.28-1.664-1.92a10.24 10.24 0 0 0-1.664-1.664c-0.64-0.64-1.408-1.152-2.048-1.664a20.7104 20.7104 0 0 0-4.096-2.56c-0.64-0.384-1.408-0.64-2.176-0.896-0.896-0.384-1.664-0.512-2.56-0.768-0.768-0.128-1.408-0.384-2.176-0.512-1.024-0.128-1.92-0.256-2.944-0.256A2.56 2.56 0 0 0 896 422.4h-51.2c0-35.328-28.672-64-64-64H601.6c-17.536 0-34.304 7.168-46.208 19.84-3.84 4.096-6.784 8.704-9.344 13.44-10.496-4.864-22.016-7.68-34.048-7.68-12.032 0-23.552 2.816-34.048 7.68-2.56-4.736-5.504-9.344-9.344-13.44A63.3856 63.3856 0 0 0 422.4 358.4H243.2c-35.328 0-64 28.672-64 64h-51.2c-0.512 0-1.024 0.128-1.536 0.128-0.896 0-1.92 0.128-2.816 0.256-0.768 0.128-1.536 0.384-2.304 0.512-0.768 0.256-1.536 0.384-2.304 0.768-0.768 0.256-1.536 0.64-2.304 1.024s-1.408 0.768-2.176 1.152a22.2464 22.2464 0 0 0-3.968 3.072c-0.64 0.512-1.152 1.152-1.664 1.792l-1.536 1.92a12.672 12.672 0 0 0-1.408 2.176c-0.256 0.512-0.64 0.896-0.896 1.28-0.128 0.256-0.128 0.512-0.256 0.768-0.384 0.768-0.64 1.664-1.024 2.56l-0.768 2.304-0.384 2.304c-0.128 0.896-0.256 1.92-0.256 2.816V448c0 0.512 0.128 1.024 0.128 1.536 0 0.896 0.128 1.92 0.256 2.816 0.128 0.768 0.384 1.536 0.512 2.304 0.256 0.768 0.384 1.536 0.768 2.304 0.256 0.768 0.64 1.536 1.024 2.304s0.768 1.408 1.152 2.176c0.384 0.64 0.896 1.28 1.408 2.048 0.512 0.64 1.024 1.28 1.664 1.92 0.512 0.64 1.152 1.152 1.792 1.664l1.92 1.536c0.768 0.512 1.536 1.024 2.304 1.408 0.512 0.256 0.896 0.64 1.28 0.768l62.848 31.36C180.992 578.56 243.456 640 320 640c63.872 0 140.672-31.488 161.024-173.696 0.128-0.64 0.128-1.408 0.256-2.048 0.384-2.816 0.768-5.632 1.152-8.704 3.2-10.88 16.256-20.48 29.44-20.48 13.184 0 26.24 9.472 29.44 20.48l1.152 8.704c0.128 0.64 0.128 1.408 0.256 2.048C563.328 608.512 640.128 640 704 640c76.544 0 139.008-61.44 140.672-137.728l62.848-31.36c0.512-0.256 0.896-0.64 1.28-0.896 0.768-0.512 1.536-0.896 2.304-1.408 0.64-0.512 1.28-1.024 1.92-1.664a10.24 10.24 0 0 0 1.664-1.664c0.64-0.64 1.152-1.28 1.664-2.048 0.512-0.64 0.896-1.28 1.28-1.92 0.512-0.768 0.896-1.536 1.152-2.176 0.384-0.768 0.64-1.408 1.024-2.176 0.256-0.768 0.512-1.664 0.768-2.432 0.256-0.768 0.384-1.536 0.512-2.304 0.128-0.896 0.256-1.92 0.256-2.816 0-0.512 0.128-0.896 0.128-1.408 0.128-0.256 0.128-0.512 0-0.768z m-583.424 6.016l-64 64c-4.992 4.992-11.52 7.552-18.048 7.552a25.6512 25.6512 0 0 1-18.048-43.776l64-64c9.984-9.984 26.24-9.984 36.224 0 9.984 10.112 9.984 26.24-0.128 36.224z m371.2 0l-64 64c-4.992 4.992-11.52 7.552-18.048 7.552a25.6512 25.6512 0 0 1-18.048-43.776l64-64c9.984-9.984 26.24-9.984 36.224 0 9.984 10.112 9.984 26.24-0.128 36.224z" fill="#FF8B00" p-id="1479"></path></svg>